# xmcd
#
# Track frame offsets: 
#        150
#        14468
#        28663
#        44153
#        60084
#        78948
#        94436
#        110428
#        120848
#        134010
#        149751
#        163891
#        177240
#        191304
#        207823
#        223493
#        239079
#        253560
#        264213
#        278018
#        293095
#        308093
#        324177
#        339136
#
# Disc length: 4682 seconds
#
# Revision: 0
# Processed by: cddbd v1.5.2PL0 Copyright (c) Steve Scherf et al.
# Submitted via: ExactAudioCopyFreeDBPlugin 1.0
#
DISCID=61124818
DTITLE=banda ms,  la arrolladora banda el limos - las badas mas chingo
DTITLE=nas
DYEAR=1900
DGENRE=
TTITLE0=shark dj - intromix
TTITLE1=manda ms - amor express
TTITLE2=la arrolladora banda el limon - no la voy a enganar
TTITLE3=manda ms - mi razon de ser
TTITLE4=la arrolladora banda el limon - razgos de inociencia
TTITLE5=manda ms - libre de mi
TTITLE6=la arrolladora banda el limon - como los gatos
TTITLE7=manda ms - sigue
TTITLE8=la arrolladora banda el limon - cabecita dura
TTITLE9=manda ms - pideme perdon
TTITLE10=la arrolladora banda el limon - no me vengas a decir
TTITLE11=manda ms - duele
TTITLE12=la arrolladora banda el limon - llamada de mi ex
TTITLE13=manda ms - mi olvido
TTITLE14=la arrolladora banda el limon - disponible para mi
TTITLE15=manda ms - de ti enamorado
TTITLE16=la arrolladora banda el limon - ya no te buscare
TTITLE17=manda ms - el patron
TTITLE18=la arrolladora banda el limon - cunato me cuesta
TTITLE19=manda ms - te equivocas
TTITLE20=la arrolladora banda el limon - tu historia fue conmigo
TTITLE21=manda ms - mi mayor anhelo
TTITLE22=la arrolladora banda el limon - el final de nuestra historia
TTITLE23=manda ms - sin evidencias
EXTD=
EXTT0=
EXTT1=
EXTT2=
EXTT3=
EXTT4=
EXTT5=
EXTT6=
EXTT7=
EXTT8=
EXTT9=
EXTT10=
EXTT11=
EXTT12=
EXTT13=
EXTT14=
EXTT15=
EXTT16=
EXTT17=
EXTT18=
EXTT19=
EXTT20=
EXTT21=
EXTT22=
EXTT23=
PLAYORDER=
